IKResults																																									
version=1																																									
nRows=15																																									
nColumns=42																																									
inDegrees=yes																																									
																																									
"Units are S.I. units (second, meters, Newtons, ...)"																																									
"If the header above contains a line with 'inDegrees', this indicates whether rotational values are in degrees (yes) or radians (no)."																																									
																																									
endheader																																									
time	pelvis_tilt	pelvis_list	pelvis_rotation	pelvis_tx	pelvis_ty	pelvis_tz	hip_flexion_r	hip_adduction_r	hip_rotation_r	knee_angle_r	knee_adduction_r	knee_angle_r_beta	ankle_angle_r	subtalar_angle_r	mtp_angle_r	hip_flexion_l	hip_adduction_l	hip_rotation_l	knee_angle_l	knee_adduction_l	knee_angle_l_beta	ankle_angle_l	subtalar_angle_l	mtp_angle_l	lumbar_extension	lumbar_bending	lumbar_rotation	arm_flex_r	arm_add_r	arm_rot_r	elbow_flex_r	pro_sup_r	wrist_flex_r	wrist_dev_r	arm_flex_l	arm_add_l	arm_rot_l	elbow_flex_l	pro_sup_l	wrist_flex_l	wrist_dev_l
30	-7.956130277	0.575236309	4.179811679	1.089748227	0.922230978	0.42562061	3.685165178	-6.203410945	3.397189244	36.1779813	2.2228717	0.631424891	15.39553839	-28.74335716	-5.814513415	34.09743586	-1.307109553	-2.69866216	28.68382116	5.38393913	0.500627121	3.948339188	-10.49410567	-1.890713878	-4.007521133	-3.194041089	2.740684041	33.93412889	-16.09933053	-4.89811266	118.6761734	90.00000001	0	0	-15.03335237	-7.530552437	2.64831334	16.72155831	90.00000001	0	0
30.01	-7.880765011	1.064651463	4.173469312	1.090209399	0.923568313	0.423935556	5.033637936	-6.927377934	2.687220296	39.81794793	2.2228717	0.694954294	14.49274906	-28.84232368	-4.693223915	33.32611823	-0.825078866	-3.199180631	28.66125655	5.38393913	0.500233294	4.771262572	-9.975424181	-2.211708573	-4.1546811	-3.789352588	2.431544091	31.95371231	-15.98357484	-4.820286539	118.5700879	90.00000001	0	0	-13.86652476	-7.869689754	3.087379665	16.66743721	90.00000001	0	0
30.02	-7.788246057	1.505129478	4.167058343	1.090530025	0.925082008	0.422357972	6.469323691	-7.603147415	2.046397569	43.51746258	2.2228717	0.759523005	13.56955962	-28.92358341	-3.400752167	32.46011653	-0.382277699	-3.652939601	28.47662438	5.38393913	0.497010855	5.521820135	-9.477340802	-2.472728754	-4.310599717	-4.320143604	2.113207971	29.88449564	-15.86294592	-4.692149331	118.2216499	90.00000001	0	0	-12.65561301	-8.246898306	3.591106488	16.77786839	90.00000001	0	0
30.03	-7.679722489	1.889583055	4.158853716	1.090712255	0.926733405	0.420894333	7.971551936	-8.219057021	1.496056141	47.21758089	2.2228717	0.824102252	12.66411181	-28.95836703	-2.011480389	31.51553994	0.016870386	-4.0361966	28.15127203	5.38393913	0.491332385	6.181087095	-9.034379557	-2.67473912	-4.472332183	-4.778092033	1.7884678	27.74923441	-15.73407064	-4.524577944	117.6164234	90.00000001	0	0	-11.4094389	-8.654936421	4.121786289	17.04036021	90.00000001	0	0
30.04	-7.556450835	2.214029237	4.148277031	1.090758763	0.928483882	0.419543665	9.521014195	-8.767023243	1.051336278	50.86210883	2.2228717	0.887711264	11.80680089	-28.92289173	-0.607812683	30.51119627	0.371087229	-4.328351429	27.71149849	5.38393913	0.483656889	6.740207617	-8.675341299	-2.822516345	-4.638056076	-5.158013035	1.460261009	25.57046611	-15.59445005	-4.332369654	116.7449012	90.00000001	0	0	-10.13201321	-9.085226895	4.64222363	17.43551335	90.00000001	0	0
30.05	-7.42004555	2.477650128	4.135336513	1.090673775	0.930295837	0.418298973	11.10103702	-9.242830003	0.721055056	54.39958769	2.2228717	0.949451917	11.01828922	-28.80158016	0.730411827	29.46680043	0.681782781	-4.513882117	27.18577512	5.38393913	0.474481285	7.199233994	-8.422228762	-2.923272025	-4.806465652	-5.458025121	1.132029209	23.36984246	-15.44263309	-4.132642785	115.6022434	90.00000001	0	0	-8.823503333	-9.528547021	5.118666637	17.93969538	90.00000001	0	0
30.06	-7.272573978	2.682657174	4.120013536	1.090463861	0.932133682	0.417149425	12.69830497	-9.646089294	0.508242546	57.78459907	2.2228717	1.008531511	10.30922766	-28.58916134	1.93560677	28.40126369	0.952424113	-4.583856717	26.60215116	5.38393913	0.464295125	7.565325587	-8.289520101	-2.985373977	-4.976326858	-5.679570712	0.807883361	21.16777325	-15.27818034	-3.942955111	114.1875433	90.00000001	0	0	-7.481592915	-9.975803586	5.523149369	18.5280543	90.00000001	0	0
30.07	-7.11643148	2.833951364	4.101717608	1.090138294	0.933964895	0.416082866	14.30294226	-9.97987916	0.411145102	60.97839596	2.2228717	1.064273782	9.68154004	-28.29122178	2.95940532	27.33119188	1.187807255	-4.536835721	25.98612836	5.38393913	0.453543499	7.850642408	-8.283818349	-3.017306717	-5.14632816	-5.827233601	0.492511999	18.98344271	-15.10143809	-3.779381167	112.5026603	90.00000001	0	0	-6.103023257	-10.41880039	5.835000309	19.17752246	90.00000001	0	0
30.08	-6.954017188	2.938595874	4.078909003	1.089708917	0.935761075	0.415088226	15.90801222	-10.25011081	0.424462007	63.94896182	2.2228717	1.116119937	9.130815436	-27.92308194	3.775957337	26.26970804	1.393311277	-4.379078629	25.35916682	5.38393913	0.442600956	8.070237316	-8.403879901	-3.026949067	-5.315238788	-5.908324678	0.19083993	16.8351656	-14.9131786	-3.654827322	110.5507202	90.00000001	0	0	-4.685104898	-10.85091027	6.041431083	19.86945846	90.00000001	0	0
30.09	-6.787296737	3.00515242	4.048951025	1.089189571	0.937498854	0.414157413	17.50860568	-10.46472308	0.540590635	66.67065192	2.2228717	1.16362239	8.649160906	-27.50724259	4.381568484	25.22568633	1.57422089	-4.12406105	24.73786048	5.38393913	0.431757115	8.240185999	-8.641008476	-3.021180469	-5.482285019	-5.93225714	-0.09249369	14.74096537	-14.7141854	-3.57784878	108.3344487	90.00000001	0	0	-3.227017655	-11.26758054	6.137273886	20.59163211	90.00000001	0	0
30.1	-6.617365165	3.042954885	4.008212237	1.088595243	0.93916052	0.41328644	19.1007338	-10.63282283	0.750695679	69.12357196	2.2228717	1.206433921	8.227852804	-27.06996049	4.791404455	24.20343558	1.73519712	-3.791373756	24.13371831	5.38393913	0.421212845	8.376107764	-8.97979731	-3.005769234	-5.647604483	-5.90977225	-0.353729204	12.71919711	-14.50487345	-3.552167079	105.854571	90.00000001	0	0	-1.730764469	-11.66662051	6.124038729	21.33936066	90.00000001	0	0
30.11	-6.444113361	3.061392151	3.952399384	1.087941143	0.940734252	0.412475644	20.680227	-10.76387609	1.045477417	71.29281526	2.2228717	1.244294359	7.859276266	-26.63766625	5.034339956	23.20281978	1.879947019	-3.405111691	23.55342564	5.38393913	0.411084827	8.492140603	-9.399206764	-2.985455289	-5.812638374	-5.852089936	-0.590529814	10.78901674	-14.28503508	-3.576984973	103.1085611	90.00000001	0	0	-0.201696276	-12.04823832	6.008504644	22.11572909	90.00000001	0	0
30.12	-6.266074939	3.069259442	3.877065021	1.08724188	0.942213923	0.411729042	22.24180523	-10.86702649	1.41558672	73.16764044	2.2228717	1.277016232	7.537891445	-26.2338864	5.14708289	22.21976591	2.011106564	-2.991888214	22.99943905	5.38393913	0.401415937	8.600354517	-9.873967683	-2.964122185	-5.98034851	-5.770058836	-0.802362166	8.970515744	-14.05378622	-3.648077582	100.0900359	90.00000001	0	0	1.351420899	-12.41481469	5.801058014	22.93094758	90.00000001	0	0
30.13	-6.080504818	3.074227816	3.778203789	1.086510858	0.943598466	0.411053001	23.77845193	-10.95059377	1.851712349	74.74064606	2.2228717	1.304470359	7.260226043	-25.8771157	5.168552687	21.24709701	2.130320901	-2.57864175	22.47077641	5.38393913	0.392189033	8.710527321	-10.37629019	-2.944959083	-6.155178097	-5.673384179	-0.990632431	7.2843934	-13.80975061	-3.759523664	96.78904595	90.00000001	0	0	2.916770125	-12.77042748	5.513967434	23.80099451	90.00000001	0	0
30.14	-5.883716773	3.08247067	3.652837804	1.085759929	0.944890805	0.410454498	25.28119113	-11.02178062	2.344430137	76.00698403	2.2228717	1.326572126	7.024096845	-25.57980155	5.13523143	20.27563004	2.23848231	-2.190432545	21.9638912	5.38393913	0.383342217	8.830175967	-10.87782022	-2.93054251	-6.342709351	-5.570012307	-1.158542455	5.751114654	-13.55147031	-3.905843319	93.19341503	90.00000001	0	0	4.480203292	-13.12017094	5.159753832	24.74575603	90.00000001	0	0
